<svg width="29" height="29" viewBox="0 0 29 29" fill="none" xmlns="http://www.w3.org/2000/svg">
<path d="M6.34375 13.5938H24.4688C24.7091 13.5938 24.9396 13.6892 25.1096 13.8592C25.2795 14.0291 25.375 14.2596 25.375 14.5C25.375 14.7404 25.2795 14.9709 25.1096 15.1408C24.9396 15.3108 24.7091 15.4062 24.4688 15.4062H6.34375C6.1034 15.4062 5.87289 15.3108 5.70293 15.1408C5.53298 14.9709 5.4375 14.7404 5.4375 14.5C5.4375 14.2596 5.53298 14.0291 5.70293 13.8592C5.87289 13.6892 6.1034 13.5938 6.34375 13.5938Z" fill="#24282E"/>
<path d="M6.71885 14.5L14.2353 22.0147C14.4055 22.1848 14.5011 22.4156 14.5011 22.6563C14.5011 22.897 14.4055 23.1278 14.2353 23.2979C14.0651 23.4681 13.8343 23.5637 13.5937 23.5637C13.353 23.5637 13.1222 23.4681 12.952 23.2979L4.79579 15.1417C4.71139 15.0575 4.64443 14.9575 4.59874 14.8474C4.55306 14.7373 4.52954 14.6192 4.52954 14.5C4.52954 14.3808 4.55306 14.2628 4.59874 14.1527C4.64443 14.0426 4.71139 13.9426 4.79579 13.8584L12.952 5.70217C13.1222 5.532 13.353 5.4364 13.5937 5.4364C13.8343 5.4364 14.0651 5.532 14.2353 5.70217C14.4055 5.87234 14.5011 6.10314 14.5011 6.3438C14.5011 6.58445 14.4055 6.81525 14.2353 6.98542L6.71885 14.5Z" fill="#24282E"/>
</svg>
